<svg width="68" height="69" viewBox="0 0 68 69" fill="none" xmlns="http://www.w3.org/2000/svg">
<path d="M33.9993 26.0002V37.3335M33.9993 48.6668H34.0276M30.076 11.5267L6.77216 51.7788C5.47958 54.0114 4.83329 55.1278 4.92881 56.044C5.01212 56.8431 5.4308 57.5693 6.08065 58.0418C6.8257 58.5835 8.11561 58.5835 10.6954 58.5835H57.3031C59.8829 58.5835 61.1728 58.5835 61.9179 58.0418C62.5677 57.5693 62.9864 56.8431 63.0697 56.044C63.1652 55.1278 62.519 54.0114 61.2264 51.7788L37.9225 11.5267C36.6346 9.30208 35.9906 8.18976 35.1504 7.81618C34.4176 7.49031 33.5809 7.49031 32.8481 7.81618C32.0079 8.18976 31.3639 9.30208 30.076 11.5267Z" stroke="#FF402B" stroke-opacity="0.7" style="stroke:#FF402B;stroke:color(display-p3 1.0000 0.2510 0.1686);stroke-opacity:0.7;" stroke-width="6.58333" stroke-linecap="round" stroke-linejoin="round"/>
</svg>
