<svg width="32" height="32" viewBox="0 0 32 32" fill="none" xmlns="http://www.w3.org/2000/svg">
<path d="M21.5866 2.66669H10.4133C5.55996 2.66669 2.66663 5.56002 2.66663 10.4134V21.5734C2.66663 26.44 5.55996 29.3334 10.4133 29.3334H21.5733C26.4266 29.3334 29.32 26.44 29.32 21.5867V10.4134C29.3333 5.56002 26.44 2.66669 21.5866 2.66669ZM22.6666 23H9.33329C8.78663 23 8.33329 22.5467 8.33329 22C8.33329 21.4534 8.78663 21 9.33329 21H22.6666C23.2133 21 23.6666 21.4534 23.6666 22C23.6666 22.5467 23.2133 23 22.6666 23ZM22.6666 17H9.33329C8.78663 17 8.33329 16.5467 8.33329 16C8.33329 15.4534 8.78663 15 9.33329 15H22.6666C23.2133 15 23.6666 15.4534 23.6666 16C23.6666 16.5467 23.2133 17 22.6666 17ZM22.6666 11H9.33329C8.78663 11 8.33329 10.5467 8.33329 10C8.33329 9.45335 8.78663 9.00002 9.33329 9.00002H22.6666C23.2133 9.00002 23.6666 9.45335 23.6666 10C23.6666 10.5467 23.2133 11 22.6666 11Z" fill="#0C2764" style="fill:#0C2764;fill:color(display-p3 0.0471 0.1529 0.3922);fill-opacity:1;"/>
</svg>
