<svg width="48" height="49" viewBox="0 0 48 49" fill="none" xmlns="http://www.w3.org/2000/svg">
<path d="M42 11.407H28C27.18 11.407 26.5 10.727 26.5 9.90698C26.5 9.08698 27.18 8.40698 28 8.40698H42C42.82 8.40698 43.5 9.08698 43.5 9.90698C43.5 10.727 42.82 11.407 42 11.407Z" fill="#0C2764" style="fill:#0C2764;fill:color(display-p3 0.0471 0.1529 0.3922);fill-opacity:1;"/>
<path d="M42 21.407H28C27.18 21.407 26.5 20.727 26.5 19.907C26.5 19.087 27.18 18.407 28 18.407H42C42.82 18.407 43.5 19.087 43.5 19.907C43.5 20.727 42.82 21.407 42 21.407Z" fill="#BFC0C1" style="fill:#BFC0C1;fill:color(display-p3 0.7490 0.7529 0.7569);fill-opacity:1;"/>
<path d="M42 31.407H6C5.18 31.407 4.5 30.727 4.5 29.907C4.5 29.087 5.18 28.407 6 28.407H42C42.82 28.407 43.5 29.087 43.5 29.907C43.5 30.727 42.82 31.407 42 31.407Z" fill="#0C2764" style="fill:#0C2764;fill:color(display-p3 0.0471 0.1529 0.3922);fill-opacity:1;"/>
<path d="M42 41.407H6C5.18 41.407 4.5 40.727 4.5 39.907C4.5 39.087 5.18 38.407 6 38.407H42C42.82 38.407 43.5 39.087 43.5 39.907C43.5 40.727 42.82 41.407 42 41.407Z" fill="#BFC0C1" style="fill:#BFC0C1;fill:color(display-p3 0.7490 0.7529 0.7569);fill-opacity:1;"/>
<path d="M15.84 7.90698H10.16C7.36 7.90698 6 9.26698 6 12.067V17.767C6 20.567 7.36 21.927 10.16 21.927H15.86C18.66 21.927 20.02 20.567 20.02 17.767V12.067C20 9.26698 18.64 7.90698 15.84 7.90698Z" fill="#0C2764" style="fill:#0C2764;fill:color(display-p3 0.0471 0.1529 0.3922);fill-opacity:1;"/>
</svg>
