<svg width="48" height="49" viewBox="0 0 48 49" fill="none" xmlns="http://www.w3.org/2000/svg">
<path opacity="0.4" d="M23.94 44.907C34.9857 44.907 43.94 35.9527 43.94 24.907C43.94 13.8613 34.9857 4.90698 23.94 4.90698C12.8943 4.90698 3.94 13.8613 3.94 24.907C3.94 35.9527 12.8943 44.907 23.94 44.907Z" fill="#ACACAC" style="fill:#ACACAC;fill:color(display-p3 0.6745 0.6745 0.6745);fill-opacity:1;"/>
<path d="M24 39.4071C19.7 39.4071 15.66 37.3071 13.2 33.7671C12.72 33.0871 12.9 32.1471 13.58 31.6871C14.26 31.2071 15.2 31.3871 15.66 32.0671C17.56 34.7871 20.68 36.4271 24 36.4271C27.32 36.4271 30.44 34.8071 32.34 32.0671C32.82 31.3871 33.74 31.2271 34.42 31.6871C35.1 32.1671 35.26 33.0871 34.8 33.7671C32.34 37.3071 28.3 39.4071 24 39.4071Z" fill="#ACACAC" style="fill:#ACACAC;fill:color(display-p3 0.6745 0.6745 0.6745);fill-opacity:1;"/>
</svg>
