<svg width="32" height="32" viewBox="0 0 32 32" fill="none" xmlns="http://www.w3.org/2000/svg">
<path d="M20.0001 30.3334H12.0001C4.76008 30.3334 1.66675 27.24 1.66675 20V12C1.66675 4.76002 4.76008 1.66669 12.0001 1.66669H20.0001C27.2401 1.66669 30.3334 4.76002 30.3334 12V20C30.3334 27.24 27.2401 30.3334 20.0001 30.3334ZM12.0001 3.66669C5.85341 3.66669 3.66675 5.85335 3.66675 12V20C3.66675 26.1467 5.85341 28.3334 12.0001 28.3334H20.0001C26.1467 28.3334 28.3334 26.1467 28.3334 20V12C28.3334 5.85335 26.1467 3.66669 20.0001 3.66669H12.0001Z" fill="#555555" style="fill:#555555;fill:color(display-p3 0.3333 0.3333 0.3333);fill-opacity:1;"/>
<path d="M11.9999 14.3333C9.97325 14.3333 8.33325 12.6933 8.33325 10.6667C8.33325 8.64 9.97325 7 11.9999 7C14.0266 7 15.6666 8.64 15.6666 10.6667C15.6666 12.6933 14.0266 14.3333 11.9999 14.3333ZM11.9999 9C11.0799 9 10.3333 9.74667 10.3333 10.6667C10.3333 11.5867 11.0799 12.3333 11.9999 12.3333C12.9199 12.3333 13.6666 11.5867 13.6666 10.6667C13.6666 9.74667 12.9199 9 11.9999 9Z" fill="#555555" style="fill:#555555;fill:color(display-p3 0.3333 0.3333 0.3333);fill-opacity:1;"/>
<path d="M3.5601 26.2666C3.2401 26.2666 2.9201 26.1066 2.73344 25.8266C2.42677 25.3733 2.54677 24.7466 3.01344 24.44L9.58677 20.0266C11.0268 19.0533 13.0134 19.1733 14.3201 20.28L14.7601 20.6666C15.4268 21.24 16.5601 21.24 17.2134 20.6666L22.7601 15.9066C24.1734 14.6933 26.4001 14.6933 27.8268 15.9066L30.0001 17.7733C30.4134 18.1333 30.4668 18.76 30.1068 19.1866C29.7468 19.6 29.1201 19.6533 28.6934 19.2933L26.5201 17.4266C25.8534 16.8533 24.7201 16.8533 24.0534 17.4266L18.5068 22.1866C17.0934 23.4 14.8668 23.4 13.4401 22.1866L13.0001 21.8C12.3868 21.28 11.3734 21.2266 10.6934 21.6933L4.1201 26.1066C3.94677 26.2133 3.74677 26.2666 3.5601 26.2666Z" fill="#555555" style="fill:#555555;fill:color(display-p3 0.3333 0.3333 0.3333);fill-opacity:1;"/>
</svg>
