<svg width="32" height="32" viewBox="0 0 32 32" fill="none" xmlns="http://www.w3.org/2000/svg">
<path d="M3.44007 25.3467L3.4134 25.3734C3.0534 24.5867 2.82673 23.6934 2.7334 22.7067C2.82673 23.6801 3.08007 24.5601 3.44007 25.3467Z" fill="#6B7280" style="fill:#6B7280;fill:color(display-p3 0.4196 0.4471 0.5020);fill-opacity:1;"/>
<path d="M12.0002 13.84C13.7528 13.84 15.1736 12.4193 15.1736 10.6667C15.1736 8.9141 13.7528 7.49335 12.0002 7.49335C10.2477 7.49335 8.8269 8.9141 8.8269 10.6667C8.8269 12.4193 10.2477 13.84 12.0002 13.84Z" fill="#0C2764" style="fill:#0C2764;fill:color(display-p3 0.0471 0.1529 0.3922);fill-opacity:1;"/>
<path d="M21.5868 2.66669H10.4134C5.56008 2.66669 2.66675 5.56002 2.66675 10.4134V21.5867C2.66675 23.04 2.92008 24.3067 3.41341 25.3734C4.56008 27.9067 7.01341 29.3334 10.4134 29.3334H21.5868C26.4401 29.3334 29.3334 26.44 29.3334 21.5867V18.5334V10.4134C29.3334 5.56002 26.4401 2.66669 21.5868 2.66669ZM27.1601 16.6667C26.1201 15.7734 24.4401 15.7734 23.4001 16.6667L17.8534 21.4267C16.8134 22.32 15.1334 22.32 14.0934 21.4267L13.6401 21.0534C12.6934 20.2267 11.1867 20.1467 10.1201 20.8667L5.13341 24.2134C4.84008 23.4667 4.66675 22.6 4.66675 21.5867V10.4134C4.66675 6.65335 6.65341 4.66669 10.4134 4.66669H21.5868C25.3468 4.66669 27.3334 6.65335 27.3334 10.4134V16.8134L27.1601 16.6667Z" fill="#0C2764" style="fill:#0C2764;fill:color(display-p3 0.0471 0.1529 0.3922);fill-opacity:1;"/>
</svg>
