<svg width="48" height="49" viewBox="0 0 48 49" fill="none" xmlns="http://www.w3.org/2000/svg">
<path opacity="0.4" d="M42.5 12.447V18.907C42.5 23.487 41.04 24.947 36.46 24.947H36.26V21.667C36.26 15.427 33.48 12.647 27.24 12.647H23.96V12.447C23.96 7.86699 25.42 6.40698 30 6.40698H36.46C41.04 6.40698 42.5 7.86699 42.5 12.447Z" fill="#ACACAC" style="fill:#ACACAC;fill:color(display-p3 0.6745 0.6745 0.6745);fill-opacity:1;"/>
<path d="M33.26 21.667V28.147C33.26 32.707 31.8 34.167 27.24 34.167H20.76C16.2 34.167 14.74 32.707 14.74 28.147V21.667C14.74 17.107 16.2 15.647 20.76 15.647H27.24C31.8 15.647 33.26 17.107 33.26 21.667Z" fill="#ACACAC" style="fill:#ACACAC;fill:color(display-p3 0.6745 0.6745 0.6745);fill-opacity:1;"/>
<path opacity="0.4" d="M24.04 37.167V37.3669C24.04 41.9469 22.58 43.407 18 43.407H11.54C6.96 43.407 5.5 41.9469 5.5 37.3669V30.907C5.5 26.327 6.96 24.8669 11.54 24.8669H11.74V28.1469C11.74 34.3869 14.52 37.167 20.76 37.167H24.04V37.167Z" fill="#ACACAC" style="fill:#ACACAC;fill:color(display-p3 0.6745 0.6745 0.6745);fill-opacity:1;"/>
</svg>
