<svg width="21" height="20" viewBox="0 0 21 20" fill="none" xmlns="http://www.w3.org/2000/svg">
<path d="M16.75 4.58341L16.2336 12.9377C16.1016 15.0721 16.0357 16.1393 15.5007 16.9067C15.2361 17.286 14.8956 17.6062 14.5006 17.8467C13.7017 18.3334 12.6325 18.3334 10.4939 18.3334C8.3526 18.3334 7.28192 18.3334 6.48254 17.8458C6.08733 17.6048 5.74667 17.2841 5.48223 16.9041C4.9474 16.1356 4.88287 15.0668 4.75384 12.9294L4.25 4.58341M18 4.58341H3M13.8813 4.58341L13.3123 3.40986C12.9344 2.6303 12.7455 2.24051 12.4196 1.99742C12.3472 1.9435 12.2707 1.89553 12.1907 1.854C11.8297 1.66675 11.3966 1.66675 10.5302 1.66675C9.64217 1.66675 9.19808 1.66675 8.83121 1.86185C8.74988 1.90509 8.67229 1.955 8.59922 2.01106C8.2695 2.264 8.08532 2.66804 7.71697 3.47613L7.21224 4.58341" stroke="#FF402B" style="stroke:#FF402B;stroke:color(display-p3 1.0000 0.2510 0.1686);stroke-opacity:1;" stroke-width="1.5" stroke-linecap="round"/>
</svg>
