<svg width="32" height="32" viewBox="0 0 32 32" fill="none" xmlns="http://www.w3.org/2000/svg">
<path d="M21.5868 2.66669H10.4134C5.56008 2.66669 2.66675 5.56002 2.66675 10.4134V21.5734C2.66675 26.44 5.56008 29.3334 10.4134 29.3334H21.5734C26.4268 29.3334 29.3201 26.44 29.3201 21.5867V10.4134C29.3334 5.56002 26.4401 2.66669 21.5868 2.66669ZM11.3334 8.50669C12.7067 8.50669 13.8401 9.62669 13.8401 11.0134C13.8401 12.4 12.7201 13.52 11.3334 13.52C9.94675 13.52 8.82675 12.3734 8.82675 11C8.82675 9.62669 9.96008 8.50669 11.3334 8.50669ZM16.0001 25.44C12.4134 25.44 9.49341 22.52 9.49341 18.9334C9.49341 18 10.2534 17.2267 11.1867 17.2267H20.7867C21.7201 17.2267 22.4801 17.9867 22.4801 18.9334C22.5068 22.52 19.5867 25.44 16.0001 25.44ZM20.6667 13.4934C19.2934 13.4934 18.1601 12.3734 18.1601 10.9867C18.1601 9.60002 19.2801 8.48002 20.6667 8.48002C22.0534 8.48002 23.1734 9.60002 23.1734 10.9867C23.1734 12.3734 22.0401 13.4934 20.6667 13.4934Z" fill="#0C2764" style="fill:#0C2764;fill:color(display-p3 0.0471 0.1529 0.3922);fill-opacity:1;"/>
</svg>
