<svg width="32" height="32" viewBox="0 0 32 32" fill="none" xmlns="http://www.w3.org/2000/svg">
<path d="M20.0001 30.3334H12.0001C4.76008 30.3334 1.66675 27.24 1.66675 20V12C1.66675 4.76002 4.76008 1.66669 12.0001 1.66669H20.0001C27.2401 1.66669 30.3334 4.76002 30.3334 12V20C30.3334 27.24 27.2401 30.3334 20.0001 30.3334ZM12.0001 3.66669C5.85341 3.66669 3.66675 5.85335 3.66675 12V20C3.66675 26.1467 5.85341 28.3334 12.0001 28.3334H20.0001C26.1467 28.3334 28.3334 26.1467 28.3334 20V12C28.3334 5.85335 26.1467 3.66669 20.0001 3.66669H12.0001Z" fill="#555555" style="fill:#555555;fill:color(display-p3 0.3333 0.3333 0.3333);fill-opacity:1;"/>
<path d="M20.6667 14C19.0134 14 17.6667 12.6533 17.6667 11C17.6667 9.34667 19.0134 8 20.6667 8C22.3201 8 23.6667 9.34667 23.6667 11C23.6667 12.6533 22.3201 14 20.6667 14ZM20.6667 10C20.1201 10 19.6667 10.4533 19.6667 11C19.6667 11.5467 20.1201 12 20.6667 12C21.2134 12 21.6667 11.5467 21.6667 11C21.6667 10.4533 21.2134 10 20.6667 10Z" fill="#555555" style="fill:#555555;fill:color(display-p3 0.3333 0.3333 0.3333);fill-opacity:1;"/>
<path d="M11.3333 14C9.67992 14 8.33325 12.6533 8.33325 11C8.33325 9.34667 9.67992 8 11.3333 8C12.9866 8 14.3333 9.34667 14.3333 11C14.3333 12.6533 12.9866 14 11.3333 14ZM11.3333 10C10.7866 10 10.3333 10.4533 10.3333 11C10.3333 11.5467 10.7866 12 11.3333 12C11.8799 12 12.3333 11.5467 12.3333 11C12.3333 10.4533 11.8799 10 11.3333 10Z" fill="#555555" style="fill:#555555;fill:color(display-p3 0.3333 0.3333 0.3333);fill-opacity:1;"/>
<path d="M16 25.9333C12.1333 25.9333 9 22.7867 9 18.9333C9 17.72 9.98667 16.7333 11.2 16.7333H20.8C22.0133 16.7333 23 17.72 23 18.9333C23 22.7867 19.8667 25.9333 16 25.9333ZM11.2 18.7333C11.0933 18.7333 11 18.8267 11 18.9333C11 21.6933 13.24 23.9333 16 23.9333C18.76 23.9333 21 21.6933 21 18.9333C21 18.8267 20.9067 18.7333 20.8 18.7333H11.2Z" fill="#555555" style="fill:#555555;fill:color(display-p3 0.3333 0.3333 0.3333);fill-opacity:1;"/>
</svg>
