<svg width="68" height="68" viewBox="0 0 68 68" fill="none" xmlns="http://www.w3.org/2000/svg">
<path fill-rule="evenodd" clip-rule="evenodd" d="M52.748 57.4228V37.1634L64.4266 31.1418C64.7504 30.9749 65.1378 30.9888 65.4488 31.1784C65.7599 31.368 65.9496 31.706 65.9496 32.0702V62.516C65.9496 62.8802 65.7599 63.2182 65.4488 63.4078C65.1378 63.5974 64.7504 63.6113 64.4266 63.4444L52.748 57.4228ZM17.6896 5.93464C18.841 6.20837 19.9391 6.66317 20.9483 7.28504L23.0661 6.34331L25.5608 8.83797L24.6227 10.9558C25.2445 11.9652 25.6993 13.0632 25.9729 14.2181L28.1336 15.0496V18.5782L25.9729 19.4098C25.6993 20.5612 25.2409 21.6593 24.6227 22.6685L25.5608 24.7864L23.0661 27.281L20.9483 26.3429C19.9425 26.9648 18.841 27.4196 17.6896 27.6932L16.8581 29.8538H13.3293L12.4979 27.6932C11.3429 27.4196 10.2449 26.9612 9.23562 26.3429L7.11775 27.281L4.62308 24.7864L5.56482 22.6685C4.94295 21.6628 4.48815 20.5612 4.21095 19.4098L2.05042 18.5782V15.0496L4.21095 14.2181C4.48815 13.0632 4.94295 11.9652 5.56482 10.9558L4.62308 8.83797L7.11775 6.34331L9.23562 7.28504C10.2449 6.66317 11.3429 6.20837 12.4943 5.93464L13.3293 3.77051H16.8581L17.6896 5.93464ZM15.092 10.6574C11.6912 10.6574 8.93722 13.4114 8.93722 16.8122C8.93722 20.2129 11.6912 22.9705 15.092 22.9705C18.4927 22.9705 21.2503 20.2129 21.2503 16.8122C21.2503 13.4114 18.4927 10.6574 15.092 10.6574ZM44.3636 30.3566H47.1603C49.068 30.3566 50.6147 31.9032 50.6147 33.8109V60.7753C50.6147 62.683 49.068 64.2297 47.1603 64.2297H5.60548C3.69762 64.2297 2.15108 62.683 2.15108 60.7753V33.8109C2.15108 31.9032 3.69762 30.3566 5.60548 30.3566H11.2371L11.3384 30.6201C11.6555 31.4437 12.4468 31.9872 13.3293 31.9872H16.8581C17.7407 31.9872 18.532 31.4437 18.8491 30.6201L18.9504 30.3566H37.6595C37.9834 31.1649 38.767 31.6964 39.6396 31.6964H42.3834C43.2562 31.6964 44.0397 31.1649 44.3636 30.3566ZM47.7223 36.2068C47.7223 34.7862 46.5707 33.6346 45.1502 33.6346H7.61548C6.19495 33.6346 5.04335 34.7862 5.04335 36.2068V58.3794C5.04335 59.8 6.19495 60.9516 7.61548 60.9516H45.1502C46.5707 60.9516 47.7223 59.8 47.7223 58.3794V36.2068ZM45.589 36.2068V58.3794C45.589 58.6218 45.3926 58.8182 45.1502 58.8182H7.61548C7.37322 58.8182 7.17668 58.6218 7.17668 58.3794V36.2068C7.17668 35.9644 7.37322 35.768 7.61548 35.768H45.1502C45.3926 35.768 45.589 35.9644 45.589 36.2068ZM34.4555 45.0085L24.4496 39.2316C23.6335 38.7604 22.6279 38.7604 21.8116 39.2316C20.9953 39.7029 20.4925 40.5737 20.4925 41.5162V53.07C20.4925 54.0125 20.9953 54.8833 21.8116 55.3546C22.6279 55.8258 23.6335 55.8258 24.4496 55.3546L34.4555 49.5777C35.2717 49.1065 35.7745 48.2356 35.7745 47.2932C35.7745 46.3506 35.2717 45.4797 34.4555 45.0085ZM43.0299 10.9648C43.9252 11.1776 44.7789 11.5312 45.5636 12.0148L47.2104 11.2825L49.1502 13.2222L48.4207 14.8689C48.9043 15.6537 49.2579 16.5074 49.4707 17.4054L51.1506 18.052V20.7957L49.4707 21.4424C49.2579 22.3376 48.9015 23.1913 48.4207 23.9761L49.1502 25.6228L47.2104 27.5625L45.5636 26.833C44.7817 27.3166 43.9252 27.6702 43.0299 27.883L42.3834 29.563H39.6396L38.9931 27.883C38.0951 27.6702 37.2414 27.3138 36.4566 26.833L34.8097 27.5625L32.8701 25.6228L33.6023 23.9761C33.1188 23.1941 32.7651 22.3376 32.5496 21.4424L30.8696 20.7957V18.052L32.5496 17.4054C32.7651 16.5074 33.1188 15.6537 33.6023 14.8689L32.8701 13.2222L34.8097 11.2825L36.4566 12.0148C37.2414 11.5312 38.0951 11.1776 38.9903 10.9648L39.6396 9.28211H42.3834L43.0299 10.9648ZM41.0102 14.6369C38.3659 14.6369 36.2245 16.7782 36.2245 19.4225C36.2245 22.0668 38.3659 24.2109 41.0102 24.2109C43.6544 24.2109 45.7986 22.0668 45.7986 19.4225C45.7986 16.7782 43.6544 14.6369 41.0102 14.6369Z" fill="#0C2764" style="fill:#0C2764;fill:color(display-p3 0.0471 0.1529 0.3922);fill-opacity:1;"/>
</svg>
