<svg width="48" height="49" viewBox="0 0 48 49" fill="none" xmlns="http://www.w3.org/2000/svg">
<path opacity="0.4" d="M44 16.527V28.707L40.74 25.907C39.18 24.567 36.66 24.567 35.1 25.907L26.78 33.047C25.22 34.387 22.7 34.387 21.14 33.047L20.46 32.487C19.04 31.247 16.78 31.127 15.18 32.207L5.34 38.807L5.12 38.967C4.38 37.367 4 35.467 4 33.287V16.527C4 9.24698 8.34 4.90698 15.62 4.90698H32.38C39.66 4.90698 44 9.24698 44 16.527Z" fill="#ACACAC" style="fill:#ACACAC;fill:color(display-p3 0.6745 0.6745 0.6745);fill-opacity:1;"/>
<path d="M18 21.667C20.6289 21.667 22.76 19.5358 22.76 16.907C22.76 14.2781 20.6289 12.147 18 12.147C15.3711 12.147 13.24 14.2781 13.24 16.907C13.24 19.5358 15.3711 21.667 18 21.667Z" fill="#ACACAC" style="fill:#ACACAC;fill:color(display-p3 0.6745 0.6745 0.6745);fill-opacity:1;"/>
<path d="M44 28.7071V33.2871C44 40.5671 39.66 44.9071 32.38 44.9071H15.62C10.52 44.9071 6.84 42.7671 5.12 38.9671L5.34 38.8071L15.18 32.2071C16.78 31.1271 19.04 31.2471 20.46 32.4871L21.14 33.0471C22.7 34.3871 25.22 34.3871 26.78 33.0471L35.1 25.9071C36.66 24.5671 39.18 24.5671 40.74 25.9071L44 28.7071Z" fill="#ACACAC" style="fill:#ACACAC;fill:color(display-p3 0.6745 0.6745 0.6745);fill-opacity:1;"/>
</svg>
