<svg width="24" height="24" viewBox="0 0 24 24" fill="none" xmlns="http://www.w3.org/2000/svg">
<mask id="mask0_800_4942" style="mask-type:luminance" maskUnits="userSpaceOnUse" x="0" y="0" width="24" height="24">
<path d="M24 0H0V24H24V0Z" fill="white" style="fill:white;fill-opacity:1;"/>
</mask>
<g mask="url(#mask0_800_4942)">
<path d="M2.6945 16.3171C4.20283 16.0089 5.58732 15.2641 6.67592 14.1755C7.76451 13.087 8.50922 11.7025 8.8175 10.1941L7.348 9.89363C7.09862 11.114 6.4961 12.2342 5.61533 13.115C4.73456 13.9957 3.61438 14.5983 2.394 14.8476L2.6945 16.3171ZM2.6945 15.6831C2.76655 15.7 2.83098 15.7403 2.87775 15.7976C2.92451 15.8549 2.95097 15.9262 2.953 16.0001C2.95112 16.0742 2.92464 16.1456 2.87776 16.203C2.83087 16.2603 2.76672 16.3005 2.6945 16.3171L2.394 14.8476C1.1395 15.1041 1.1395 16.8961 2.394 17.1526L2.6945 15.6831ZM8.8175 21.8061C8.50922 20.2978 7.76451 18.9133 6.67592 17.8247C5.58732 16.7361 4.20283 15.9914 2.6945 15.6831L2.394 17.1526C3.61438 17.402 4.73456 18.0045 5.61533 18.8853C6.4961 19.7661 7.09862 20.8863 7.348 22.1066L8.8175 21.8061ZM8.1835 21.8061C8.20037 21.7341 8.24062 21.6697 8.29797 21.6229C8.35531 21.5761 8.42653 21.5497 8.5005 21.5476C8.57458 21.5495 8.64594 21.576 8.70333 21.6229C8.76072 21.6698 8.80138 21.7344 8.818 21.8066L7.348 22.1066C7.6045 23.3611 9.3965 23.3611 9.653 22.1066L8.1835 21.8061ZM14.3065 15.6831C12.7982 15.9914 11.4137 16.7361 10.3251 17.8247C9.23649 18.9133 8.49178 20.2978 8.1835 21.8061L9.653 22.1066C9.90238 20.8863 10.5049 19.7661 11.3857 18.8853C12.2664 18.0045 13.3866 17.402 14.607 17.1526L14.3065 15.6831ZM14.3065 16.3171C14.2345 16.3003 14.17 16.26 14.1233 16.2027C14.0765 16.1453 14.05 16.0741 14.048 16.0001C14.0501 15.9261 14.0766 15.8548 14.1234 15.7975C14.1703 15.7401 14.2349 15.6994 14.307 15.6826L14.607 17.1526C15.8615 16.8961 15.8615 15.1041 14.607 14.8476L14.3065 16.3171ZM8.1835 10.1941C8.49178 11.7025 9.23649 13.087 10.3251 14.1755C11.4137 15.2641 12.7982 16.0089 14.3065 16.3171L14.607 14.8476C13.3866 14.5983 12.2664 13.9957 11.3857 13.115C10.5049 12.2342 9.90238 11.114 9.653 9.89363L8.1835 10.1941ZM9.653 9.89363C9.3965 8.63913 7.6045 8.63913 7.348 9.89363L8.818 10.1936C8.8012 10.2659 8.76092 10.3305 8.70346 10.3773C8.64601 10.4242 8.57462 10.4507 8.5005 10.4526C8.42646 10.4506 8.35519 10.424 8.29784 10.3772C8.24048 10.3303 8.20027 10.2658 8.1835 10.1936L9.653 9.89363ZM15.7955 10.7051C16.7587 10.5084 17.6429 10.0329 18.3381 9.33771C19.0333 8.64254 19.5088 7.75837 19.7055 6.79513L18.236 6.49513C18.0981 7.17026 17.7648 7.78997 17.2776 8.27721C16.7903 8.76446 16.1706 9.09774 15.4955 9.23563L15.7955 10.7051ZM15.7955 9.29513C16.563 9.45163 16.563 10.5486 15.7955 10.7051L15.4955 9.23563C14.6635 9.40563 14.6635 10.5946 15.4955 10.7646L15.7955 9.29513ZM19.7055 13.2051C19.5088 12.2419 19.0333 11.3577 18.3381 10.6626C17.6429 9.96738 16.7587 9.49187 15.7955 9.29513L15.4955 10.7646C16.1706 10.9025 16.7903 11.2358 17.2776 11.7231C17.7648 12.2103 18.0981 12.83 18.236 13.5051L19.7055 13.2051ZM18.2955 13.2051C18.452 12.4376 19.549 12.4376 19.7055 13.2051L18.236 13.5051C18.406 14.3371 19.595 14.3371 19.765 13.5051L18.2955 13.2051ZM22.2055 9.29513C21.2423 9.49187 20.3581 9.96738 19.6629 10.6626C18.9677 11.3577 18.4922 12.2419 18.2955 13.2051L19.765 13.5051C19.9029 12.83 20.2362 12.2103 20.7234 11.7231C21.2107 11.2358 21.8304 10.9025 22.5055 10.7646L22.2055 9.29513ZM22.2055 10.7051C21.438 10.5486 21.438 9.45163 22.2055 9.29513L22.5055 10.7646C23.3375 10.5946 23.3375 9.40563 22.5055 9.23563L22.2055 10.7051ZM18.2955 6.79513C18.4922 7.75837 18.9677 8.64254 19.6629 9.33771C20.3581 10.0329 21.2423 10.5084 22.2055 10.7051L22.5055 9.23563C21.8304 9.09774 21.2107 8.76446 20.7234 8.27721C20.2362 7.78997 19.9029 7.17026 19.765 6.49513L18.2955 6.79513ZM19.765 6.49513C19.595 5.66313 18.406 5.66313 18.236 6.49513L19.7055 6.79513C19.5485 7.56263 18.452 7.56263 18.2955 6.79513L19.765 6.49513ZM11.532 1.29363C11.636 0.783633 12.365 0.783633 12.4695 1.29363C12.5821 1.84484 12.8542 2.35079 13.252 2.7486C13.6498 3.14641 14.1558 3.41853 14.707 3.53113C15.217 3.63563 15.217 4.36463 14.707 4.46913C14.1558 4.58173 13.6498 4.85385 13.252 5.25166C12.8542 5.64947 12.5821 6.15543 12.4695 6.70663C12.365 7.21663 11.636 7.21663 11.532 6.70663C11.4194 6.15536 11.1472 5.64936 10.7493 5.25154C10.3514 4.85373 9.8453 4.58165 9.294 4.46913C8.784 4.36463 8.784 3.63563 9.294 3.53113C9.8453 3.41862 10.3514 3.14654 10.7493 2.74872C11.1472 2.35091 11.4194 1.8449 11.532 1.29363Z" fill="white" style="fill:white;fill-opacity:1;"/>
</g>
</svg>
