<svg width="18" height="18" viewBox="0 0 18 18" fill="none" xmlns="http://www.w3.org/2000/svg">
<path fill-rule="evenodd" clip-rule="evenodd" d="M1 8.75C1.55228 8.75 2 9.19771 2 9.75V15C2 15.5523 2.44772 16 3 16H15C15.5523 16 16 15.5523 16 15V9.75C16 9.19771 16.4477 8.75 17 8.75C17.5523 8.75 18 9.19771 18 9.75V15C18 16.6569 16.6569 18 15 18H3C1.34315 18 0 16.6569 0 15V9.75C0 9.19771 0.447715 8.75 1 8.75Z" fill="#8B8B9D" style="fill:#8B8B9D;fill:color(display-p3 0.5451 0.5451 0.6157);fill-opacity:1;"/>
<path fill-rule="evenodd" clip-rule="evenodd" d="M8.99999 0C9.2652 -3.57626e-07 9.51956 0.105356 9.70709 0.292892L14.2071 4.79289C14.5976 5.18342 14.5976 5.81658 14.2071 6.20711C13.8166 6.59763 13.1834 6.59763 12.7929 6.20711L9.99999 3.41421V12.25C9.99999 12.8023 9.55227 13.25 8.99999 13.25C8.4477 13.25 7.99999 12.8023 7.99999 12.25V3.41422L5.20711 6.20711C4.81658 6.59763 4.18342 6.59763 3.79289 6.20711C3.40237 5.81658 3.40237 5.18342 3.79289 4.79289L8.29288 0.292894C8.48042 0.105358 8.73477 3.5763e-07 8.99999 0Z" fill="#8B8B9D" style="fill:#8B8B9D;fill:color(display-p3 0.5451 0.5451 0.6157);fill-opacity:1;"/>
</svg>
