<svg width="32" height="32" viewBox="0 0 32 32" fill="none" xmlns="http://www.w3.org/2000/svg">
<path d="M21.5868 2.66669H10.4134C5.56008 2.66669 2.66675 5.56002 2.66675 10.4134V21.5734C2.66675 26.44 5.56008 29.3334 10.4134 29.3334H21.5734C26.4268 29.3334 29.3201 26.44 29.3201 21.5867V10.4134C29.3334 5.56002 26.4401 2.66669 21.5868 2.66669ZM8.66675 16.76H12.3601C12.9067 16.76 13.3601 17.2134 13.3601 17.76C13.3601 18.3067 12.9067 18.76 12.3601 18.76H8.66675C8.12008 18.76 7.66675 18.3067 7.66675 17.76C7.66675 17.2134 8.12008 16.76 8.66675 16.76ZM17.2934 23.7734H8.66675C8.12008 23.7734 7.66675 23.32 7.66675 22.7734C7.66675 22.2267 8.12008 21.7734 8.66675 21.7734H17.2934C17.8401 21.7734 18.2934 22.2267 18.2934 22.7734C18.2934 23.32 17.8534 23.7734 17.2934 23.7734ZM23.3334 23.7734H20.8667C20.3201 23.7734 19.8667 23.32 19.8667 22.7734C19.8667 22.2267 20.3201 21.7734 20.8667 21.7734H23.3334C23.8801 21.7734 24.3334 22.2267 24.3334 22.7734C24.3334 23.32 23.8801 23.7734 23.3334 23.7734ZM23.3334 18.76H15.9601C15.4134 18.76 14.9601 18.3067 14.9601 17.76C14.9601 17.2134 15.4134 16.76 15.9601 16.76H23.3334C23.8801 16.76 24.3334 17.2134 24.3334 17.76C24.3334 18.3067 23.8801 18.76 23.3334 18.76Z" fill="#0C2764" style="fill:#0C2764;fill:color(display-p3 0.0471 0.1529 0.3922);fill-opacity:1;"/>
</svg>
