<svg width="48" height="49" viewBox="0 0 48 49" fill="none" xmlns="http://www.w3.org/2000/svg">
<path d="M35 36.5669H31.3C30.48 36.5669 29.8 35.8869 29.8 35.0669C29.8 34.2469 30.48 33.5669 31.3 33.5669H35C35.82 33.5669 36.5 34.2469 36.5 35.0669C36.5 35.8869 35.82 36.5669 35 36.5669Z" fill="#ACACAC" style="fill:#ACACAC;fill:color(display-p3 0.6745 0.6745 0.6745);fill-opacity:1;"/>
<path d="M25.94 36.5669H13C12.18 36.5669 11.5 35.8869 11.5 35.0669C11.5 34.2469 12.18 33.5669 13 33.5669H25.94C26.76 33.5669 27.44 34.2469 27.44 35.0669C27.44 35.8869 26.78 36.5669 25.94 36.5669Z" fill="#ACACAC" style="fill:#ACACAC;fill:color(display-p3 0.6745 0.6745 0.6745);fill-opacity:1;"/>
<path d="M35 29.0469H23.94C23.12 29.0469 22.44 28.3669 22.44 27.5469C22.44 26.7269 23.12 26.0469 23.94 26.0469H35C35.82 26.0469 36.5 26.7269 36.5 27.5469C36.5 28.3669 35.82 29.0469 35 29.0469Z" fill="#ACACAC" style="fill:#ACACAC;fill:color(display-p3 0.6745 0.6745 0.6745);fill-opacity:1;"/>
<path d="M18.54 29.0469H13C12.18 29.0469 11.5 28.3669 11.5 27.5469C11.5 26.7269 12.18 26.0469 13 26.0469H18.54C19.36 26.0469 20.04 26.7269 20.04 27.5469C20.04 28.3669 19.36 29.0469 18.54 29.0469Z" fill="#ACACAC" style="fill:#ACACAC;fill:color(display-p3 0.6745 0.6745 0.6745);fill-opacity:1;"/>
<path opacity="0.4" d="M32.38 4.90698H15.62C8.34 4.90698 4 9.24698 4 16.527V33.267C4 40.567 8.34 44.907 15.62 44.907H32.36C39.64 44.907 43.98 40.567 43.98 33.287V16.527C44 9.24698 39.66 4.90698 32.38 4.90698Z" fill="#DEDEDE" style="fill:#DEDEDE;fill:color(display-p3 0.8706 0.8706 0.8706);fill-opacity:1;"/>
</svg>
