<svg width="32" height="32" viewBox="0 0 32 32" fill="none" xmlns="http://www.w3.org/2000/svg">
<path d="M16.9036 26.6094C17.2699 26.6946 17.3034 27.1744 16.9466 27.2934L14.84 27.9867C9.54663 29.6934 6.75997 28.2667 5.03997 22.9734L3.3333 17.7067C1.62663 12.4134 3.03997 9.61335 8.3333 7.90668L9.37063 7.56315C9.77349 7.42974 10.1612 7.83212 10.0388 8.23846C9.92673 8.61042 9.82162 9.0065 9.71997 9.42668L8.4133 15.0134C6.94663 21.2934 9.0933 24.76 15.3733 26.2534L16.9036 26.6094Z" fill="#0C2764" style="fill:#0C2764;fill:color(display-p3 0.0471 0.1529 0.3922);fill-opacity:1;"/>
<path d="M22.8934 4.27999L20.6667 3.75999C16.2134 2.70666 13.5601 3.57332 12.0001 6.79999C11.6001 7.61332 11.2801 8.59999 11.0134 9.73332L9.70674 15.32C8.40008 20.8933 10.1201 23.64 15.6801 24.96L17.9201 25.4933C18.6934 25.68 19.4134 25.8 20.0801 25.8533C24.2401 26.2533 26.4534 24.3067 27.5734 19.4933L28.8801 13.92C30.1867 8.34666 28.4801 5.58666 22.8934 4.27999ZM20.3867 17.7733C20.2667 18.2267 19.8667 18.52 19.4134 18.52C19.3334 18.52 19.2534 18.5067 19.1601 18.4933L15.2801 17.5067C14.7467 17.3733 14.4267 16.8267 14.5601 16.2933C14.6934 15.76 15.2401 15.44 15.7734 15.5733L19.6534 16.56C20.2001 16.6933 20.5201 17.24 20.3867 17.7733ZM24.2934 13.2667C24.1734 13.72 23.7734 14.0133 23.3201 14.0133C23.2401 14.0133 23.1601 14 23.0667 13.9867L16.6001 12.3467C16.0667 12.2133 15.7467 11.6667 15.8801 11.1333C16.0134 10.6 16.5601 10.28 17.0934 10.4133L23.5601 12.0533C24.1067 12.1733 24.4267 12.72 24.2934 13.2667Z" fill="#0C2764" style="fill:#0C2764;fill:color(display-p3 0.0471 0.1529 0.3922);fill-opacity:1;"/>
</svg>
