<svg width="20" height="21" viewBox="0 0 20 21" fill="none" xmlns="http://www.w3.org/2000/svg">
<path fill-rule="evenodd" clip-rule="evenodd" d="M10.8333 9.35539H16.6667C17.1269 9.35539 17.5 9.72848 17.5 10.1887C17.5 10.649 17.1269 11.0221 16.6667 11.0221H10.8333V16.8554C10.8333 17.3156 10.4602 17.6887 10 17.6887C9.53976 17.6887 9.16667 17.3156 9.16667 16.8554V11.0221H3.33333C2.8731 11.0221 2.5 10.649 2.5 10.1887C2.5 9.72848 2.8731 9.35539 3.33333 9.35539H9.16667V3.52205C9.16667 3.06182 9.53976 2.68872 10 2.68872C10.4602 2.68872 10.8333 3.06182 10.8333 3.52205V9.35539Z" fill="#FAFAFB" style="fill:#FAFAFB;fill:color(display-p3 0.9804 0.9804 0.9843);fill-opacity:1;"/>
</svg>
