<svg width="33" height="34" viewBox="0 0 33 34" fill="none" xmlns="http://www.w3.org/2000/svg">
<path d="M4.125 30.9499H3.09375C3.09375 31.5194 3.55546 31.9812 4.125 31.9812V30.9499ZM27.5 3.44992H28.5313C28.5313 2.88038 28.0695 2.41867 27.5 2.41867V3.44992ZM13.75 3.44992V2.41867H13.3228L13.0208 2.72072L13.75 3.44992ZM4.125 13.0749L3.3958 12.3457L3.09375 12.6478V13.0749H4.125ZM13.75 13.0749V14.1062H14.7813V13.0749H13.75ZM13.75 29.9187H4.125V31.9812H13.75V29.9187ZM27.5 2.41867H13.75V4.48117H27.5V2.41867ZM3.09375 13.0749V30.9499H5.15625V13.0749H3.09375ZM13.0208 2.72072L3.3958 12.3457L4.8542 13.8041L14.4792 4.17912L13.0208 2.72072ZM12.7188 3.44992V13.0749H14.7813V3.44992H12.7188ZM13.75 12.0437H4.125V14.1062H13.75V12.0437ZM26.4688 3.44992V15.8249H28.5313V3.44992H26.4688Z" fill="#3348FF" style="fill:#3348FF;fill:color(display-p3 0.2000 0.2809 1.0000);fill-opacity:1;"/>
<path d="M17.875 30.9499H16.8438V31.9811H17.875V30.9499ZM17.875 27.5124L17.1458 26.7832L16.8438 27.0852V27.5124H17.875ZM21.3125 30.9499V31.9811H21.7397L22.0417 31.6791L21.3125 30.9499ZM25.4375 19.9499L26.1667 19.2207C25.7639 18.818 25.1111 18.818 24.7083 19.2207L25.4375 19.9499ZM28.875 23.3874L29.6042 24.1165C30.0069 23.7138 30.0069 23.061 29.6042 22.6582L28.875 23.3874ZM18.9063 30.9499V27.5124H16.8438V30.9499H18.9063ZM17.875 31.9811H21.3125V29.9186H17.875V31.9811ZM18.6042 28.2416L26.1667 20.679L24.7083 19.2207L17.1458 26.7832L18.6042 28.2416ZM24.7083 20.679L28.1458 24.1165L29.6042 22.6582L26.1667 19.2207L24.7083 20.679ZM28.1458 22.6582L20.5833 30.2207L22.0417 31.6791L29.6042 24.1165L28.1458 22.6582Z" fill="#3348FF" style="fill:#3348FF;fill:color(display-p3 0.2000 0.2809 1.0000);fill-opacity:1;"/>
</svg>
