<svg width="29" height="29" viewBox="0 0 29 29" fill="none" xmlns="http://www.w3.org/2000/svg">
<path fill-rule="evenodd" clip-rule="evenodd" d="M8.98789 14.2658C8.98789 12.9795 7.94695 11.9367 6.66289 11.9367C5.37883 11.9367 4.33789 12.9795 4.33789 14.2658C4.33789 15.5522 5.37883 16.5949 6.66289 16.5949C7.94695 16.5949 8.98789 15.5522 8.98789 14.2658Z" fill="currentColor"/>
<path fill-rule="evenodd" clip-rule="evenodd" d="M17.1254 14.2658C17.1254 12.9795 16.0845 11.9367 14.8004 11.9367C13.5163 11.9367 12.4754 12.9795 12.4754 14.2658C12.4754 15.5522 13.5163 16.5949 14.8004 16.5949C16.0845 16.5949 17.1254 15.5522 17.1254 14.2658Z" fill="currentColor"/>
<path fill-rule="evenodd" clip-rule="evenodd" d="M25.2629 14.2658C25.2629 12.9795 24.222 11.9367 22.9379 11.9367C21.6538 11.9367 20.6129 12.9795 20.6129 14.2658C20.6129 15.5522 21.6538 16.5949 22.9379 16.5949C24.222 16.5949 25.2629 15.5522 25.2629 14.2658Z" fill="currentColor"/>
</svg>
