<svg width="81" height="81" viewBox="0 0 81 81" fill="none" xmlns="http://www.w3.org/2000/svg">
<g clip-path="url(#clip0_800_2638)">
<rect x="0.5" y="0.5" width="80" height="80" rx="20" fill="#0C2764" style="fill:#0C2764;fill:color(display-p3 0.0471 0.1529 0.3922);fill-opacity:1;"/>
<g clip-path="url(#clip1_800_2638)">
<path d="M21 21L60 60" stroke="white" style="stroke:white;stroke-opacity:1;" stroke-width="3" stroke-linecap="round" stroke-linejoin="round"/>
<path d="M47 38.3333V36.1667L56.8648 31.2353C57.1951 31.0703 57.562 30.9924 57.9308 31.009C58.2996 31.0256 58.6581 31.1362 58.9721 31.3303C59.2862 31.5243 59.5455 31.7954 59.7254 32.1178C59.9053 32.4402 59.9998 32.8032 60 33.1723V47.8277C60.0001 48.2791 59.8593 48.7193 59.5971 49.0868C59.3349 49.4542 58.9644 49.7306 58.5375 49.8773" stroke="white" style="stroke:white;stroke-opacity:1;" stroke-width="3" stroke-linecap="round" stroke-linejoin="round"/>
<path d="M36.1667 27.5H42.6667C43.8159 27.5 44.9181 27.9565 45.7308 28.7692C46.5435 29.5819 47 30.6841 47 31.8333V38.3333M47 47V49.1667C47 50.3159 46.5435 51.4181 45.7308 52.2308C44.9181 53.0435 43.8159 53.5 42.6667 53.5H25.3333C24.1841 53.5 23.0819 53.0435 22.2692 52.2308C21.4565 51.4181 21 50.3159 21 49.1667V31.8333C21 30.6841 21.4565 29.5819 22.2692 28.7692C23.0819 27.9565 24.1841 27.5 25.3333 27.5H27.5" stroke="white" style="stroke:white;stroke-opacity:1;" stroke-width="3" stroke-linecap="round" stroke-linejoin="round"/>
</g>
<g filter="url(#filter0_f_800_2638)">
<path d="M67.2246 14.8457L17.3457 64.7246L-24.3495 9.72838L12.2283 -26.8495L67.2246 14.8457Z" fill="url(#paint0_linear_800_2638)" fill-opacity="0.7" style=""/>
</g>
</g>
<rect x="1.5" y="1.5" width="78" height="78" rx="19" stroke="white" stroke-opacity="0.4" style="stroke:white;stroke-opacity:0.4;" stroke-width="2"/>
<defs>
<filter id="filter0_f_800_2638" x="-34.3496" y="-36.8496" width="111.574" height="111.574" filterUnits="userSpaceOnUse" color-interpolation-filters="sRGB">
<feFlood flood-opacity="0" result="BackgroundImageFix"/>
<feBlend mode="normal" in="SourceGraphic" in2="BackgroundImageFix" result="shape"/>
<feGaussianBlur stdDeviation="5" result="effect1_foregroundBlur_800_2638"/>
</filter>
<linearGradient id="paint0_linear_800_2638" x1="-12.2228" y1="-2.39838" x2="28.527" y2="49.3189" gradientUnits="userSpaceOnUse">
<stop stop-color="white" style="stop-color:white;stop-opacity:1;"/>
<stop offset="1" stop-color="white" stop-opacity="0" style="stop-color:none;stop-opacity:0;"/>
</linearGradient>
<clipPath id="clip0_800_2638">
<rect x="0.5" y="0.5" width="80" height="80" rx="20" fill="white" style="fill:white;fill-opacity:1;"/>
</clipPath>
<clipPath id="clip1_800_2638">
<rect width="52" height="52" fill="white" style="fill:white;fill-opacity:1;" transform="translate(14.5 14.5)"/>
</clipPath>
</defs>
</svg>
