<svg width="34" height="34" viewBox="0 0 34 34" fill="none" xmlns="http://www.w3.org/2000/svg">
<g clip-path="url(#clip0_1092_14565)">
<path d="M13.5 27.5C12.3343 27.2356 11.5362 27.0959 10.5 26.5" stroke="#0C2764" style="stroke:#0C2764;stroke:color(display-p3 0.0471 0.1529 0.3922);stroke-opacity:1;" stroke-width="2" stroke-linecap="round" stroke-linejoin="round"/>
<path d="M18.5 4.5C21.1627 5.10813 22.7972 6.36449 24.5 8.5C26.2028 10.6355 27.5 12.7687 27.5 15.5C27.5 18.2313 26.2028 21.3645 24.5 23.5C22.7972 25.6355 21.1627 26.8919 18.5 27.5" stroke="#0C2764" style="stroke:#0C2764;stroke:color(display-p3 0.0471 0.1529 0.3922);stroke-opacity:1;" stroke-width="2" stroke-linecap="round" stroke-linejoin="round"/>
<path d="M5.5 22.5C4.76943 21.4386 4.85786 20.7379 4.5 19.5" stroke="#0C2764" style="stroke:#0C2764;stroke:color(display-p3 0.0471 0.1529 0.3922);stroke-opacity:1;" stroke-width="2" stroke-linecap="round" stroke-linejoin="round"/>
<path d="M4.5 13.5C4.71429 12.2277 4.92143 11.6049 5.5 10.5V10.5" stroke="#0C2764" style="stroke:#0C2764;stroke:color(display-p3 0.0471 0.1529 0.3922);stroke-opacity:1;" stroke-width="2" stroke-linecap="round" stroke-linejoin="round"/>
<path d="M9.5 5.5C10.7531 4.63737 12.0165 4.83712 13.5 4.5" stroke="#0C2764" style="stroke:#0C2764;stroke:color(display-p3 0.0471 0.1529 0.3922);stroke-opacity:1;" stroke-width="2" stroke-linecap="round" stroke-linejoin="round"/>
<path d="M16.5 12.5V20.5" stroke="#0C2764" style="stroke:#0C2764;stroke:color(display-p3 0.0471 0.1529 0.3922);stroke-opacity:1;" stroke-width="2" stroke-linecap="round" stroke-linejoin="round"/>
<path d="M20.5 16.5L16.5 20.5L12.5 16.5" stroke="#0C2764" style="stroke:#0C2764;stroke:color(display-p3 0.0471 0.1529 0.3922);stroke-opacity:1;" stroke-width="2" stroke-linecap="round" stroke-linejoin="round"/>
</g>
<defs>
<clipPath id="clip0_1092_14565">
<rect width="33" height="33" fill="white" style="fill:white;fill-opacity:1;" transform="translate(0.5 0.5)"/>
</clipPath>
</defs>
</svg>
