<svg width="28" height="22" viewBox="0 0 28 22" fill="none" xmlns="http://www.w3.org/2000/svg">
<path fill-rule="evenodd" clip-rule="evenodd" d="M0.5625 11.0705L0.5625 10.9295C0.562475 8.63225 0.562462 6.81275 0.753925 5.38875C0.95095 3.92325 1.3661 2.737 2.30155 1.8015C3.23701 0.866123 4.4232 0.450998 5.88872 0.253874C7.31274 0.0624978 9.13229 0.0624996 11.4295 0.0624995L16.5705 0.0624993C18.8677 0.0624992 20.6872 0.0624972 22.1112 0.253873C23.5767 0.450997 24.763 0.866122 25.6985 1.8015C26.6339 2.737 27.049 3.92325 27.2461 5.38875C27.4375 6.81275 27.4375 8.63225 27.4375 10.9295L27.4375 11.0705C27.4375 13.3677 27.4375 15.1873 27.2461 16.6113C27.049 18.0768 26.6339 19.263 25.6985 20.1984C24.763 21.1339 23.5767 21.549 22.1112 21.7461C20.6872 21.9375 18.8677 21.9375 16.5705 21.9375L11.4295 21.9375C9.13227 21.9375 7.31274 21.9375 5.88873 21.7461C4.4232 21.549 3.23701 21.1339 2.30155 20.1984C1.3661 19.263 0.95095 18.0768 0.753925 16.6113C0.562463 15.1873 0.562475 13.3678 0.5625 11.0705ZM2.6122 16.3614C2.78128 17.619 3.09836 18.3436 3.62738 18.8726C4.15639 19.4016 4.88095 19.7187 6.13856 19.8878C7.42314 20.0605 9.11647 20.0625 11.5 20.0625L16.5 20.0625C18.8835 20.0625 20.5769 20.0605 21.8615 19.8878C23.119 19.7187 23.8436 19.4016 24.3726 18.8726C24.9016 18.3436 25.2187 17.619 25.3877 16.3614C25.5605 15.0769 25.5625 13.3835 25.5625 11C25.5625 8.6165 25.5605 6.92312 25.3877 5.6385C25.2187 4.381 24.9016 3.65637 24.3726 3.12738C23.8436 2.59837 23.119 2.28125 21.8615 2.11225C20.5769 1.9395 18.8835 1.9375 16.5 1.9375L11.5 1.9375C9.11647 1.9375 7.42314 1.9395 6.13856 2.11225C4.88095 2.28125 4.15639 2.59838 3.62737 3.12738C3.09836 3.65638 2.78127 4.381 2.6122 5.6385C2.43949 6.92313 2.4375 8.6165 2.4375 11C2.4375 13.3835 2.43949 15.0769 2.6122 16.3614ZM5.25 15.6875C4.73224 15.6875 4.3125 15.2678 4.3125 14.75L4.3125 7.25C4.3125 6.73225 4.73224 6.3125 5.25 6.3125C5.76776 6.3125 6.1875 6.73225 6.1875 7.25L6.1875 14.75C6.1875 15.2678 5.76776 15.6875 5.25 15.6875ZM18.6875 11C18.6875 11.863 19.387 12.5625 20.25 12.5625C21.113 12.5625 21.8125 11.863 21.8125 11C21.8125 10.137 21.113 9.4375 20.25 9.4375C19.387 9.4375 18.6875 10.137 18.6875 11ZM20.25 14.4375C18.3515 14.4375 16.8125 12.8985 16.8125 11C16.8125 9.1015 18.3515 7.5625 20.25 7.5625C22.1485 7.5625 23.6875 9.1015 23.6875 11C23.6875 12.8985 22.1485 14.4375 20.25 14.4375Z" fill="currentColor" />
</svg>
