<svg width="20" height="21" viewBox="0 0 20 21" fill="none" xmlns="http://www.w3.org/2000/svg">
<path d="M2.28834 16.0957C1.94717 16.0957 1.66425 15.8128 1.66425 15.4716V10.7285C1.62264 8.47347 2.46309 6.34323 4.02748 4.74556C5.59187 3.1562 7.68882 2.28247 9.94388 2.28247C14.5538 2.28247 18.3067 6.03535 18.3067 10.6453V15.3884C18.3067 15.7296 18.0238 16.0125 17.6826 16.0125C17.3415 16.0125 17.0585 15.7296 17.0585 15.3884V10.6453C17.0585 6.72601 13.8715 3.53066 9.94388 3.53066C8.02167 3.53066 6.24093 4.27125 4.91785 5.61929C3.58645 6.97565 2.87915 8.78136 2.91243 10.7119V15.4633C2.91243 15.8128 2.63783 16.0957 2.28834 16.0957Z" fill="#010101" style="fill:#010101;fill:color(display-p3 0.0039 0.0039 0.0039);fill-opacity:1;"/>
<path d="M4.94281 10.9363H4.83464C3.08718 10.9363 1.66425 12.3592 1.66425 14.1067V15.6711C1.66425 17.4185 3.08718 18.8415 4.83464 18.8415H4.94281C6.69027 18.8415 8.1132 17.4185 8.1132 15.6711V14.1067C8.1132 12.3592 6.69027 10.9363 4.94281 10.9363Z" fill="#010101" style="fill:#010101;fill:color(display-p3 0.0039 0.0039 0.0039);fill-opacity:1;"/>
<path d="M15.1363 10.9363H15.0282C13.2807 10.9363 11.8578 12.3592 11.8578 14.1067V15.6711C11.8578 17.4185 13.2807 18.8415 15.0282 18.8415H15.1363C16.8838 18.8415 18.3067 17.4185 18.3067 15.6711V14.1067C18.3067 12.3592 16.8838 10.9363 15.1363 10.9363Z" fill="#001100" style="fill:#001100;fill:color(display-p3 0.0000 0.0667 0.0000);fill-opacity:1;"/>
</svg>
