<svg width="22" height="23" viewBox="0 0 22 23" fill="none" xmlns="http://www.w3.org/2000/svg">
<path d="M15.4193 8.44483C15.4193 7.98058 15.2422 7.51634 14.888 7.16213C14.5337 6.8079 14.0695 6.63079 13.6052 6.63079M13.6052 13.8871C16.6109 13.8871 19.0475 11.4506 19.0475 8.44488C19.0475 5.4392 16.6109 3.00262 13.6052 3.00262C10.5995 3.00262 8.16296 5.4392 8.16296 8.44488C8.16296 8.69312 8.17958 8.93747 8.21176 9.17689C8.26471 9.57068 8.29118 9.76757 8.27336 9.89215C8.2548 10.0219 8.23117 10.0918 8.16721 10.2063C8.10581 10.3161 7.99761 10.4243 7.78121 10.6407L3.14577 15.2762C2.9889 15.433 2.91046 15.5115 2.85436 15.603C2.80463 15.6842 2.76798 15.7726 2.74576 15.8652C2.7207 15.9696 2.7207 16.0805 2.7207 16.3024V17.8781C2.7207 18.3861 2.7207 18.6401 2.81956 18.8341C2.90653 19.0048 3.04529 19.1436 3.21596 19.2305C3.40998 19.3294 3.66398 19.3294 4.17197 19.3294H6.34887V17.5153H8.16296V15.7012H9.97704L11.4094 14.2689C11.6258 14.0525 11.734 13.9443 11.8438 13.8829C11.9583 13.8189 12.0282 13.7953 12.1579 13.7767C12.2825 13.7589 12.4794 13.7854 12.8732 13.8383C13.1126 13.8705 13.357 13.8871 13.6052 13.8871Z" stroke="#9E9EAD" style="stroke:#9E9EAD;stroke:color(display-p3 0.6196 0.6196 0.6784);stroke-opacity:1;" stroke-width="1.76873" stroke-linecap="round" stroke-linejoin="round"/>
</svg>
