<svg width="21" height="22" viewBox="0 0 21 22" fill="none" xmlns="http://www.w3.org/2000/svg">
<path d="M14.875 19.2598H6.125C2.93125 19.2598 1.09375 17.4223 1.09375 14.2285V8.10352C1.09375 4.90977 2.93125 3.07227 6.125 3.07227H14.875C18.0688 3.07227 19.9062 4.90977 19.9062 8.10352V14.2285C19.9062 17.4223 18.0688 19.2598 14.875 19.2598ZM6.125 4.38477C3.6225 4.38477 2.40625 5.60102 2.40625 8.10352V14.2285C2.40625 16.731 3.6225 17.9473 6.125 17.9473H14.875C17.3775 17.9473 18.5938 16.731 18.5938 14.2285V8.10352C18.5938 5.60102 17.3775 4.38477 14.875 4.38477H6.125Z" fill="#9E9EAD" style="fill:#9E9EAD;fill:color(display-p3 0.6196 0.6196 0.6784);fill-opacity:1;"/>
<path d="M10.4994 11.9272C9.76444 11.9272 9.02069 11.6997 8.45194 11.236L5.71319 9.04849C5.43319 8.82099 5.38069 8.40974 5.60819 8.12974C5.83569 7.84974 6.24695 7.79724 6.52695 8.02474L9.26569 10.2122C9.93069 10.746 11.0594 10.746 11.7244 10.2122L14.4632 8.02474C14.7432 7.79724 15.1632 7.84099 15.3819 8.12974C15.6094 8.40974 15.5657 8.82974 15.2769 9.04849L12.5382 11.236C11.9782 11.6997 11.2344 11.9272 10.4994 11.9272Z" fill="#9E9EAD" style="fill:#9E9EAD;fill:color(display-p3 0.6196 0.6196 0.6784);fill-opacity:1;"/>
</svg>
